{"title":"Escape.Plan.2013.R6.AudioFix.XViD-Booda225","uid":9274188,"size":906874880,"categoryP":"video","categoryS":"movies","magnet":"?xt=urn:btih:236428bc075e147b0c318db3e090e76baf823356&amp;dn=Escape.Plan.2013.R6.AudioFix.XViD-Booda225&amp;tr=udp%3A%2F%2Ftracker.openbittorrent.com%3A80&amp;tr=udp%3A%2F%2Fopen.demonii.com%3A1337&amp;tr=udp%3A%2F%2Ftracker.coppersurfer.tk%3A6969&amp;tr=udp%3A%2F%2Fexodus.desync.com%3A6969","seeders":0,"leechers":2,"uploader":"Booda225","files":-1,"time":1385829587,"description":"This is a Audio Fix! By Booda225\n\nFormat : AVI\nFormat/Info : Audio Video Interleave\nFile size : 865 MiB\nDuration : 1h 46mn\nOverall bit rate mode : Variable\nOverall bit rate : 1 131 Kbps\nWriting application : VirtualDubMod 1.5.10.2 (build 2540/release)\nWriting library : VirtualDubMod build 2540/release\n\nVideo\nID : 0\nFormat : MPEG-4 Visual\nFormat profile : Advanced Simple@L5\nFormat settings, BVOP : 2\nFormat settings, QPel : No\nFormat settings, GMC : No warppoints\nFormat settings, Matrix : Default (H.263)\nMuxing mode : Packed bitstream\nCodec ID : XVID\nCodec ID/Hint : XviD\nDuration : 1h 46mn\nBit rate : 911 Kbps\nWidth : 720 pixels\nHeight : 262 pixels\nDisplay aspect ratio : 2.748\nFrame rate : 23.976 fps\nColor space : YUV\nChroma subsampling : 4:2:0\nBit depth : 8 bits\nScan type : Progressive\nCompression mode : Lossy\nBits/(Pixel*Frame) : 0.201\nStream size : 697 MiB (81%)\nWriting library : XviD 64\n\nAudio\nID : 1\nFormat : MPEG Audio\nFormat version : Version 1\nFormat profile : Layer 3\nCodec ID : 55\nCodec ID/Hint : MP3\nDuration : 1h 46mn\nBit rate mode : Variable\nBit rate : 207 Kbps\nChannel(s) : 2 channels\nSampling rate : 48.0 KHz\nCompression mode : Lossy\nStream size : 158 MiB (18%)\nAlignment : Aligned on interleaves\nInterleave, duration : 24 ms (0.58 video frame)\nInterleave, preload duration : 111 ms","torrent":{"xt":"urn:btih:236428bc075e147b0c318db3e090e76baf823356","amp;dn":"Escape.Plan.2013.R6.AudioFix.XViD-Booda225","amp;tr":["udp%3A%2F%2Ftracker.openbittorrent.com%3A80","udp%3A%2F%2Fopen.demonii.com%3A1337","udp%3A%2F%2Ftracker.coppersurfer.tk%3A6969","udp%3A%2F%2Fexodus.desync.com%3A6969"],"infoHash":"236428bc075e147b0c318db3e090e76baf823356","infoHashBuffer":{"type":"Buffer","data":[35,100,40,188,7,94,20,123,12,49,141,179,224,144,231,107,175,130,51,86]},"announce":[],"urlList":[]}}